/* XPM */
static char * door_xpm[] = {
"128 128 5 1",
" 	c #7E7409",
".	c #897E0C",
"+	c #AB9F20",
"@	c #9D9213",
"#	c #928608",
"        ................        ................        ................        ................        ................        ",
"        ................        ................        ................        ................        ................        ",
"        ................        ................        ................        ................        ................        ",
"        ................        ................        ................        ................        ................        ",
"        ................        ................        ................        ................        ................        ",
"        ................        ................        ................        ................        ................        ",
"        ................        ................        ................        ................        ................        ",
"        ................        ................        ................        ................        ................        ",
"........++++++++@@@@@@@@########++++++++@@@@@@@@########++++++++@@@@@@@@########++++++++@@@@@@@@########++++++++@@@@@@@@........",
"........++++++++@@@@@@@@########++++++++@@@@@@@@########++++++++@@@@@@@@########++++++++@@@@@@@@########++++++++@@@@@@@@........",
"........++++++++@@@@@@@@########++++++++@@@@@@@@########++++++++@@@@@@@@########++++++++@@@@@@@@########++++++++@@@@@@@@........",
"........++++++++@@@@@@@@########++++++++@@@@@@@@########++++++++@@@@@@@@########++++++++@@@@@@@@########++++++++@@@@@@@@........",
"........++++++++@@@@@@@@########++++++++@@@@@@@@########++++++++@@@@@@@@########++++++++@@@@@@@@########++++++++@@@@@@@@........",
"........++++++++@@@@@@@@########++++++++@@@@@@@@########++++++++@@@@@@@@########++++++++@@@@@@@@########++++++++@@@@@@@@........",
"........++++++++@@@@@@@@########++++++++@@@@@@@@########++++++++@@@@@@@@########++++++++@@@@@@@@########++++++++@@@@@@@@........",
"........++++++++@@@@@@@@########++++++++@@@@@@@@########++++++++@@@@@@@@########++++++++@@@@@@@@########++++++++@@@@@@@@........",
"........@@@@@@@@@@@@@@@@########@@@@@@@@@@@@@@@@########@@@@@@@@@@@@@@@@########@@@@@@@@@@@@@@@@########@@@@@@@@@@@@@@@@........",
"........@@@@@@@@@@@@@@@@########@@@@@@@@@@@@@@@@########@@@@@@@@@@@@@@@@########@@@@@@@@@@@@@@@@########@@@@@@@@@@@@@@@@........",
"........@@@@@@@@@@@@@@@@########@@@@@@@@@@@@@@@@########@@@@@@@@@@@@@@@@########@@@@@@@@@@@@@@@@########@@@@@@@@@@@@@@@@........",
"........@@@@@@@@@@@@@@@@########@@@@@@@@@@@@@@@@########@@@@@@@@@@@@@@@@########@@@@@@@@@@@@@@@@########@@@@@@@@@@@@@@@@........",
"........@@@@@@@@@@@@@@@@########@@@@@@@@@@@@@@@@########@@@@@@@@@@@@@@@@########@@@@@@@@@@@@@@@@########@@@@@@@@@@@@@@@@........",
"........@@@@@@@@@@@@@@@@########@@@@@@@@@@@@@@@@########@@@@@@@@@@@@@@@@########@@@@@@@@@@@@@@@@########@@@@@@@@@@@@@@@@........",
"........@@@@@@@@@@@@@@@@########@@@@@@@@@@@@@@@@########@@@@@@@@@@@@@@@@########@@@@@@@@@@@@@@@@########@@@@@@@@@@@@@@@@........",
"........@@@@@@@@@@@@@@@@########@@@@@@@@@@@@@@@@########@@@@@@@@@@@@@@@@########@@@@@@@@@@@@@@@@########@@@@@@@@@@@@@@@@........",
"        ################........################........################........################........################        ",
"        ################........################........################........################........################        ",
"        ################........################........################........################........################        ",
"        ################........################........################........################........################        ",
"        ################........################........################........################........################        ",
"        ################........################........################........################........################        ",
"        ################........################........################........################........################        ",
"        ################........################........################........################........################        ",
"........++++++++@@@@@@@@########++++++++@@@@@@@@########++++++++@@@@@@@@########++++++++@@@@@@@@########++++++++@@@@@@@@........",
"........++++++++@@@@@@@@########++++++++@@@@@@@@########++++++++@@@@@@@@########++++++++@@@@@@@@########++++++++@@@@@@@@........",
"........++++++++@@@@@@@@########++++++++@@@@@@@@########++++++++@@@@@@@@########++++++++@@@@@@@@########++++++++@@@@@@@@........",
"........++++++++@@@@@@@@########++++++++@@@@@@@@########++++++++@@@@@@@@########++++++++@@@@@@@@########++++++++@@@@@@@@........",
"........++++++++@@@@@@@@########++++++++@@@@@@@@########++++++++@@@@@@@@########++++++++@@@@@@@@########++++++++@@@@@@@@........",
"........++++++++@@@@@@@@########++++++++@@@@@@@@########++++++++@@@@@@@@########++++++++@@@@@@@@########++++++++@@@@@@@@........",
"........++++++++@@@@@@@@########++++++++@@@@@@@@########++++++++@@@@@@@@########++++++++@@@@@@@@########++++++++@@@@@@@@........",
"........++++++++@@@@@@@@########++++++++@@@@@@@@########++++++++@@@@@@@@########++++++++@@@@@@@@########++++++++@@@@@@@@........",
"........@@@@@@@@@@@@@@@@########@@@@@@@@@@@@@@@@########@@@@@@@@@@@@@@@@########@@@@@@@@@@@@@@@@########@@@@@@@@@@@@@@@@........",
"........@@@@@@@@@@@@@@@@########@@@@@@@@@@@@@@@@########@@@@@@@@@@@@@@@@########@@@@@@@@@@@@@@@@########@@@@@@@@@@@@@@@@........",
"........@@@@@@@@@@@@@@@@########@@@@@@@@@@@@@@@@########@@@@@@@@@@@@@@@@########@@@@@@@@@@@@@@@@########@@@@@@@@@@@@@@@@........",
"........@@@@@@@@@@@@@@@@########@@@@@@@@@@@@@@@@########@@@@@@@@@@@@@@@@########@@@@@@@@@@@@@@@@########@@@@@@@@@@@@@@@@........",
"........@@@@@@@@@@@@@@@@########@@@@@@@@@@@@@@@@########@@@@@@@@@@@@@@@@########@@@@@@@@@@@@@@@@########@@@@@@@@@@@@@@@@........",
"........@@@@@@@@@@@@@@@@########@@@@@@@@@@@@@@@@########@@@@@@@@@@@@@@@@########@@@@@@@@@@@@@@@@########@@@@@@@@@@@@@@@@........",
"........@@@@@@@@@@@@@@@@########@@@@@@@@@@@@@@@@########@@@@@@@@@@@@@@@@########@@@@@@@@@@@@@@@@########@@@@@@@@@@@@@@@@........",
"........@@@@@@@@@@@@@@@@########@@@@@@@@@@@@@@@@########@@@@@@@@@@@@@@@@########@@@@@@@@@@@@@@@@########@@@@@@@@@@@@@@@@........",
"        ################........################........################........################........################        ",
"        ################........################........################........################........################        ",
"        ################........################........################........################........################        ",
"        ################........################........################........################........################        ",
"        ################........################........################........################........################        ",
"        ################........################........################........################........################        ",
"        ################........################........################........################........################        ",
"        ################........################........################........################........################        ",
"........++++++++@@@@@@@@########++++++++@@@@@@@@########++++++++@@@@@@@@########++++++++@@@@@@@@########++++++++@@@@@@@@........",
"........++++++++@@@@@@@@########++++++++@@@@@@@@########++++++++@@@@@@@@########++++++++@@@@@@@@########++++++++@@@@@@@@........",
"........++++++++@@@@@@@@########++++++++@@@@@@@@########++++++++@@@@@@@@########++++++++@@@@@@@@########++++++++@@@@@@@@........",
"........++++++++@@@@@@@@########++++++++@@@@@@@@########++++++++@@@@@@@@########++++++++@@@@@@@@########++++++++@@@@@@@@........",
"........++++++++@@@@@@@@########++++++++@@@@@@@@########++++++++@@@@@@@@########++++++++@@@@@@@@########++++++++@@@@@@@@........",
"........++++++++@@@@@@@@########++++++++@@@@@@@@########++++++++@@@@@@@@########++++++++@@@@@@@@########++++++++@@@@@@@@........",
"........++++++++@@@@@@@@########++++++++@@@@@@@@########++++++++@@@@@@@@########++++++++@@@@@@@@########++++++++@@@@@@@@........",
"........++++++++@@@@@@@@########++++++++@@@@@@@@########++++++++@@@@@@@@########++++++++@@@@@@@@########++++++++@@@@@@@@........",
"........@@@@@@@@@@@@@@@@########@@@@@@@@@@@@@@@@########@@@@@@@@@@@@@@@@########@@@@@@@@@@@@@@@@########@@@@@@@@@@@@@@@@........",
"........@@@@@@@@@@@@@@@@########@@@@@@@@@@@@@@@@########@@@@@@@@@@@@@@@@########@@@@@@@@@@@@@@@@########@@@@@@@@@@@@@@@@........",
"........@@@@@@@@@@@@@@@@########@@@@@@@@@@@@@@@@########@@@@@@@@@@@@@@@@########@@@@@@@@@@@@@@@@########@@@@@@@@@@@@@@@@........",
"........@@@@@@@@@@@@@@@@########@@@@@@@@@@@@@@@@########@@@@@@@@@@@@@@@@########@@@@@@@@@@@@@@@@########@@@@@@@@@@@@@@@@........",
"........@@@@@@@@@@@@@@@@########@@@@@@@@@@@@@@@@########@@@@@@@@@@@@@@@@########@@@@@@@@@@@@@@@@########@@@@@@@@@@@@@@@@........",
"........@@@@@@@@@@@@@@@@########@@@@@@@@@@@@@@@@########@@@@@@@@@@@@@@@@########@@@@@@@@@@@@@@@@########@@@@@@@@@@@@@@@@........",
"........@@@@@@@@@@@@@@@@########@@@@@@@@@@@@@@@@########@@@@@@@@@@@@@@@@########@@@@@@@@@@@@@@@@########@@@@@@@@@@@@@@@@........",
"........@@@@@@@@@@@@@@@@########@@@@@@@@@@@@@@@@########@@@@@@@@@@@@@@@@########@@@@@@@@@@@@@@@@########@@@@@@@@@@@@@@@@........",
"        ################........################........################........################........################        ",
"        ################........################........################........################........################        ",
"        ################........################........################........################........################        ",
"        ################........################........################........################........################        ",
"        ################........################........################........################........################        ",
"        ################........################........################........################........################        ",
"        ################........################........################........################........################        ",
"        ################........################........################........################........################        ",
"........++++++++@@@@@@@@########++++++++@@@@@@@@########++++++++@@@@@@@@########++++++++@@@@@@@@########++++++++@@@@@@@@........",
"........++++++++@@@@@@@@########++++++++@@@@@@@@########++++++++@@@@@@@@########++++++++@@@@@@@@########++++++++@@@@@@@@........",
"........++++++++@@@@@@@@########++++++++@@@@@@@@########++++++++@@@@@@@@########++++++++@@@@@@@@########++++++++@@@@@@@@........",
"........++++++++@@@@@@@@########++++++++@@@@@@@@########++++++++@@@@@@@@########++++++++@@@@@@@@########++++++++@@@@@@@@........",
"........++++++++@@@@@@@@########++++++++@@@@@@@@########++++++++@@@@@@@@########++++++++@@@@@@@@########++++++++@@@@@@@@........",
"........++++++++@@@@@@@@########++++++++@@@@@@@@########++++++++@@@@@@@@########++++++++@@@@@@@@########++++++++@@@@@@@@........",
"........++++++++@@@@@@@@########++++++++@@@@@@@@########++++++++@@@@@@@@########++++++++@@@@@@@@########++++++++@@@@@@@@........",
"........++++++++@@@@@@@@########++++++++@@@@@@@@########++++++++@@@@@@@@########++++++++@@@@@@@@########++++++++@@@@@@@@........",
"........@@@@@@@@@@@@@@@@########@@@@@@@@@@@@@@@@########@@@@@@@@@@@@@@@@########@@@@@@@@@@@@@@@@########@@@@@@@@@@@@@@@@........",
"........@@@@@@@@@@@@@@@@########@@@@@@@@@@@@@@@@########@@@@@@@@@@@@@@@@########@@@@@@@@@@@@@@@@########@@@@@@@@@@@@@@@@........",
"........@@@@@@@@@@@@@@@@########@@@@@@@@@@@@@@@@########@@@@@@@@@@@@@@@@########@@@@@@@@@@@@@@@@########@@@@@@@@@@@@@@@@........",
"........@@@@@@@@@@@@@@@@########@@@@@@@@@@@@@@@@########@@@@@@@@@@@@@@@@########@@@@@@@@@@@@@@@@########@@@@@@@@@@@@@@@@........",
"........@@@@@@@@@@@@@@@@########@@@@@@@@@@@@@@@@########@@@@@@@@@@@@@@@@########@@@@@@@@@@@@@@@@########@@@@@@@@@@@@@@@@........",
"........@@@@@@@@@@@@@@@@########@@@@@@@@@@@@@@@@########@@@@@@@@@@@@@@@@########@@@@@@@@@@@@@@@@########@@@@@@@@@@@@@@@@........",
"........@@@@@@@@@@@@@@@@########@@@@@@@@@@@@@@@@########@@@@@@@@@@@@@@@@########@@@@@@@@@@@@@@@@########@@@@@@@@@@@@@@@@........",
"........@@@@@@@@@@@@@@@@########@@@@@@@@@@@@@@@@########@@@@@@@@@@@@@@@@########@@@@@@@@@@@@@@@@########@@@@@@@@@@@@@@@@........",
"        ################........################........################........################........################        ",
"        ################........################........################........################........################        ",
"        ################........################........################........################........################        ",
"        ################........################........################........################........################        ",
"        ################........################........################........################........################        ",
"        ################........################........################........################........################        ",
"        ################........################........################........################........################        ",
"        ################........################........################........################........################        ",
"........++++++++@@@@@@@@########++++++++@@@@@@@@########++++++++@@@@@@@@########++++++++@@@@@@@@########++++++++@@@@@@@@........",
"........++++++++@@@@@@@@########++++++++@@@@@@@@########++++++++@@@@@@@@########++++++++@@@@@@@@########++++++++@@@@@@@@........",
"........++++++++@@@@@@@@########++++++++@@@@@@@@########++++++++@@@@@@@@########++++++++@@@@@@@@########++++++++@@@@@@@@........",
"........++++++++@@@@@@@@########++++++++@@@@@@@@########++++++++@@@@@@@@########++++++++@@@@@@@@########++++++++@@@@@@@@........",
"........++++++++@@@@@@@@########++++++++@@@@@@@@########++++++++@@@@@@@@########++++++++@@@@@@@@########++++++++@@@@@@@@........",
"........++++++++@@@@@@@@########++++++++@@@@@@@@########++++++++@@@@@@@@########++++++++@@@@@@@@########++++++++@@@@@@@@........",
"........++++++++@@@@@@@@########++++++++@@@@@@@@########++++++++@@@@@@@@########++++++++@@@@@@@@########++++++++@@@@@@@@........",
"........++++++++@@@@@@@@########++++++++@@@@@@@@########++++++++@@@@@@@@########++++++++@@@@@@@@########++++++++@@@@@@@@........",
"........@@@@@@@@@@@@@@@@########@@@@@@@@@@@@@@@@########@@@@@@@@@@@@@@@@########@@@@@@@@@@@@@@@@########@@@@@@@@@@@@@@@@........",
"........@@@@@@@@@@@@@@@@########@@@@@@@@@@@@@@@@########@@@@@@@@@@@@@@@@########@@@@@@@@@@@@@@@@########@@@@@@@@@@@@@@@@........",
"........@@@@@@@@@@@@@@@@########@@@@@@@@@@@@@@@@########@@@@@@@@@@@@@@@@########@@@@@@@@@@@@@@@@########@@@@@@@@@@@@@@@@........",
"........@@@@@@@@@@@@@@@@########@@@@@@@@@@@@@@@@########@@@@@@@@@@@@@@@@########@@@@@@@@@@@@@@@@########@@@@@@@@@@@@@@@@........",
"........@@@@@@@@@@@@@@@@########@@@@@@@@@@@@@@@@########@@@@@@@@@@@@@@@@########@@@@@@@@@@@@@@@@########@@@@@@@@@@@@@@@@........",
"........@@@@@@@@@@@@@@@@########@@@@@@@@@@@@@@@@########@@@@@@@@@@@@@@@@########@@@@@@@@@@@@@@@@########@@@@@@@@@@@@@@@@........",
"........@@@@@@@@@@@@@@@@########@@@@@@@@@@@@@@@@########@@@@@@@@@@@@@@@@########@@@@@@@@@@@@@@@@########@@@@@@@@@@@@@@@@........",
"........@@@@@@@@@@@@@@@@########@@@@@@@@@@@@@@@@########@@@@@@@@@@@@@@@@########@@@@@@@@@@@@@@@@########@@@@@@@@@@@@@@@@........",
"        ................        ................        ................        ................        ................        ",
"        ................        ................        ................        ................        ................        ",
"        ................        ................        ................        ................        ................        ",
"        ................        ................        ................        ................        ................        ",
"        ................        ................        ................        ................        ................        ",
"        ................        ................        ................        ................        ................        ",
"        ................        ................        ................        ................        ................        ",
"        ................        ................        ................        ................        ................        "};
