/* XPM */
static char * diamond_xpm[] = {
"128 128 9 1",
" 	c #949494",
".	c #8B8B8B",
"+	c #9F9F9F",
"@	c #7C7D80",
"#	c #74777A",
"$	c #ABF1FF",
"%	c #43E8F5",
"&	c #5FABED",
"*	c #579BD0",
"        ........                ++++++++++++++++        ........        ++++++++++++++++++++++++        ........................",
"        ........                ++++++++++++++++        ........        ++++++++++++++++++++++++        ........................",
"        ........                ++++++++++++++++        ........        ++++++++++++++++++++++++        ........................",
"        ........                ++++++++++++++++        ........        ++++++++++++++++++++++++        ........................",
"        ........                ++++++++++++++++        ........        ++++++++++++++++++++++++        ........................",
"        ........                ++++++++++++++++        ........        ++++++++++++++++++++++++        ........................",
"        ........                ++++++++++++++++        ........        ++++++++++++++++++++++++        ........................",
"        ........                ++++++++++++++++        ........        ++++++++++++++++++++++++        ........................",
"........@@@@@@@@@@@@@@@@@@@@@@@@################$$$$$$$$++++++++........                ........################@@@@@@@@........",
"........@@@@@@@@@@@@@@@@@@@@@@@@################$$$$$$$$++++++++........                ........################@@@@@@@@........",
"........@@@@@@@@@@@@@@@@@@@@@@@@################$$$$$$$$++++++++........                ........################@@@@@@@@........",
"........@@@@@@@@@@@@@@@@@@@@@@@@################$$$$$$$$++++++++........                ........################@@@@@@@@........",
"........@@@@@@@@@@@@@@@@@@@@@@@@################$$$$$$$$++++++++........                ........################@@@@@@@@........",
"........@@@@@@@@@@@@@@@@@@@@@@@@################$$$$$$$$++++++++........                ........################@@@@@@@@........",
"........@@@@@@@@@@@@@@@@@@@@@@@@################$$$$$$$$++++++++........                ........################@@@@@@@@........",
"........@@@@@@@@@@@@@@@@@@@@@@@@################$$$$$$$$++++++++........                ........################@@@@@@@@........",
"        ........++++++++++++++++        ........################++++++++++++++++%%%%%%%%$$$$$$$$########        ++++++++++++++++",
"        ........++++++++++++++++        ........################++++++++++++++++%%%%%%%%$$$$$$$$########        ++++++++++++++++",
"        ........++++++++++++++++        ........################++++++++++++++++%%%%%%%%$$$$$$$$########        ++++++++++++++++",
"        ........++++++++++++++++        ........################++++++++++++++++%%%%%%%%$$$$$$$$########        ++++++++++++++++",
"        ........++++++++++++++++        ........################++++++++++++++++%%%%%%%%$$$$$$$$########        ++++++++++++++++",
"        ........++++++++++++++++        ........################++++++++++++++++%%%%%%%%$$$$$$$$########        ++++++++++++++++",
"        ........++++++++++++++++        ........################++++++++++++++++%%%%%%%%$$$$$$$$########        ++++++++++++++++",
"        ........++++++++++++++++        ........################++++++++++++++++%%%%%%%%$$$$$$$$########        ++++++++++++++++",
"++++++++        ........%%%%%%%%$$$$$$$$++++++++        ++++++++++++++++        ........        ++++++++........................",
"++++++++        ........%%%%%%%%$$$$$$$$++++++++        ++++++++++++++++        ........        ++++++++........................",
"++++++++        ........%%%%%%%%$$$$$$$$++++++++        ++++++++++++++++        ........        ++++++++........................",
"++++++++        ........%%%%%%%%$$$$$$$$++++++++        ++++++++++++++++        ........        ++++++++........................",
"++++++++        ........%%%%%%%%$$$$$$$$++++++++        ++++++++++++++++        ........        ++++++++........................",
"++++++++        ........%%%%%%%%$$$$$$$$++++++++        ++++++++++++++++        ........        ++++++++........................",
"++++++++        ........%%%%%%%%$$$$$$$$++++++++        ++++++++++++++++        ........        ++++++++........................",
"++++++++        ........%%%%%%%%$$$$$$$$++++++++        ++++++++++++++++        ........        ++++++++........................",
"........................        ++++++++        %%%%%%%%%%%%%%%%@@@@@@@@########........++++++++++++++++++++++++        ........",
"........................        ++++++++        %%%%%%%%%%%%%%%%@@@@@@@@########........++++++++++++++++++++++++        ........",
"........................        ++++++++        %%%%%%%%%%%%%%%%@@@@@@@@########........++++++++++++++++++++++++        ........",
"........................        ++++++++        %%%%%%%%%%%%%%%%@@@@@@@@########........++++++++++++++++++++++++        ........",
"........................        ++++++++        %%%%%%%%%%%%%%%%@@@@@@@@########........++++++++++++++++++++++++        ........",
"........................        ++++++++        %%%%%%%%%%%%%%%%@@@@@@@@########........++++++++++++++++++++++++        ........",
"........................        ++++++++        %%%%%%%%%%%%%%%%@@@@@@@@########........++++++++++++++++++++++++        ........",
"........................        ++++++++        %%%%%%%%%%%%%%%%@@@@@@@@########........++++++++++++++++++++++++        ........",
"        ........########&&&&&&&&&&&&&&&&$$$$$$$$$$$$$$$$%%%%%%%%%%%%%%%%........++++++++++++++++        ........@@@@@@@@@@@@@@@@",
"        ........########&&&&&&&&&&&&&&&&$$$$$$$$$$$$$$$$%%%%%%%%%%%%%%%%........++++++++++++++++        ........@@@@@@@@@@@@@@@@",
"        ........########&&&&&&&&&&&&&&&&$$$$$$$$$$$$$$$$%%%%%%%%%%%%%%%%........++++++++++++++++        ........@@@@@@@@@@@@@@@@",
"        ........########&&&&&&&&&&&&&&&&$$$$$$$$$$$$$$$$%%%%%%%%%%%%%%%%........++++++++++++++++        ........@@@@@@@@@@@@@@@@",
"        ........########&&&&&&&&&&&&&&&&$$$$$$$$$$$$$$$$%%%%%%%%%%%%%%%%........++++++++++++++++        ........@@@@@@@@@@@@@@@@",
"        ........########&&&&&&&&&&&&&&&&$$$$$$$$$$$$$$$$%%%%%%%%%%%%%%%%........++++++++++++++++        ........@@@@@@@@@@@@@@@@",
"        ........########&&&&&&&&&&&&&&&&$$$$$$$$$$$$$$$$%%%%%%%%%%%%%%%%........++++++++++++++++        ........@@@@@@@@@@@@@@@@",
"        ........########&&&&&&&&&&&&&&&&$$$$$$$$$$$$$$$$%%%%%%%%%%%%%%%%........++++++++++++++++        ........@@@@@@@@@@@@@@@@",
"........########################........................################................########%%%%%%%%$$$$$$$$%%%%%%%%........",
"........########################........................################................########%%%%%%%%$$$$$$$$%%%%%%%%........",
"........########################........................################................########%%%%%%%%$$$$$$$$%%%%%%%%........",
"........########################........................################................########%%%%%%%%$$$$$$$$%%%%%%%%........",
"........########################........................################................########%%%%%%%%$$$$$$$$%%%%%%%%........",
"........########################........................################................########%%%%%%%%$$$$$$$$%%%%%%%%........",
"........########################........................################................########%%%%%%%%$$$$$$$$%%%%%%%%........",
"........########################........................################................########%%%%%%%%$$$$$$$$%%%%%%%%........",
"++++++++++++++++        @@@@@@@@@@@@@@@@@@@@@@@@........%%%%%%%%++++++++++++++++********$$$$$$$$%%%%%%%%********++++++++++++++++",
"++++++++++++++++        @@@@@@@@@@@@@@@@@@@@@@@@........%%%%%%%%++++++++++++++++********$$$$$$$$%%%%%%%%********++++++++++++++++",
"++++++++++++++++        @@@@@@@@@@@@@@@@@@@@@@@@........%%%%%%%%++++++++++++++++********$$$$$$$$%%%%%%%%********++++++++++++++++",
"++++++++++++++++        @@@@@@@@@@@@@@@@@@@@@@@@........%%%%%%%%++++++++++++++++********$$$$$$$$%%%%%%%%********++++++++++++++++",
"++++++++++++++++        @@@@@@@@@@@@@@@@@@@@@@@@........%%%%%%%%++++++++++++++++********$$$$$$$$%%%%%%%%********++++++++++++++++",
"++++++++++++++++        @@@@@@@@@@@@@@@@@@@@@@@@........%%%%%%%%++++++++++++++++********$$$$$$$$%%%%%%%%********++++++++++++++++",
"++++++++++++++++        @@@@@@@@@@@@@@@@@@@@@@@@........%%%%%%%%++++++++++++++++********$$$$$$$$%%%%%%%%********++++++++++++++++",
"++++++++++++++++        @@@@@@@@@@@@@@@@@@@@@@@@........%%%%%%%%++++++++++++++++********$$$$$$$$%%%%%%%%********++++++++++++++++",
"........&&&&&&&&%%%%%%%%%%%%%%%%$$$$$$$$++++++++++++++++........                        ........################................",
"........&&&&&&&&%%%%%%%%%%%%%%%%$$$$$$$$++++++++++++++++........                        ........################................",
"........&&&&&&&&%%%%%%%%%%%%%%%%$$$$$$$$++++++++++++++++........                        ........################................",
"........&&&&&&&&%%%%%%%%%%%%%%%%$$$$$$$$++++++++++++++++........                        ........################................",
"........&&&&&&&&%%%%%%%%%%%%%%%%$$$$$$$$++++++++++++++++........                        ........################................",
"........&&&&&&&&%%%%%%%%%%%%%%%%$$$$$$$$++++++++++++++++........                        ........################................",
"........&&&&&&&&%%%%%%%%%%%%%%%%$$$$$$$$++++++++++++++++........                        ........################................",
"........&&&&&&&&%%%%%%%%%%%%%%%%$$$$$$$$++++++++++++++++........                        ........################................",
"        ++++++++        &&&&&&&&%%%%%%%%$$$$$$$$++++++++++++++++++++++++%%%%%%%%$$$$$$$$++++++++++++++++@@@@@@@@@@@@@@@@........",
"        ++++++++        &&&&&&&&%%%%%%%%$$$$$$$$++++++++++++++++++++++++%%%%%%%%$$$$$$$$++++++++++++++++@@@@@@@@@@@@@@@@........",
"        ++++++++        &&&&&&&&%%%%%%%%$$$$$$$$++++++++++++++++++++++++%%%%%%%%$$$$$$$$++++++++++++++++@@@@@@@@@@@@@@@@........",
"        ++++++++        &&&&&&&&%%%%%%%%$$$$$$$$++++++++++++++++++++++++%%%%%%%%$$$$$$$$++++++++++++++++@@@@@@@@@@@@@@@@........",
"        ++++++++        &&&&&&&&%%%%%%%%$$$$$$$$++++++++++++++++++++++++%%%%%%%%$$$$$$$$++++++++++++++++@@@@@@@@@@@@@@@@........",
"        ++++++++        &&&&&&&&%%%%%%%%$$$$$$$$++++++++++++++++++++++++%%%%%%%%$$$$$$$$++++++++++++++++@@@@@@@@@@@@@@@@........",
"        ++++++++        &&&&&&&&%%%%%%%%$$$$$$$$++++++++++++++++++++++++%%%%%%%%$$$$$$$$++++++++++++++++@@@@@@@@@@@@@@@@........",
"        ++++++++        &&&&&&&&%%%%%%%%$$$$$$$$++++++++++++++++++++++++%%%%%%%%$$$$$$$$++++++++++++++++@@@@@@@@@@@@@@@@........",
"........................        ................                ********&&&&&&&&%%%%%%%%$$$$$$$$                        ++++++++",
"........................        ................                ********&&&&&&&&%%%%%%%%$$$$$$$$                        ++++++++",
"........................        ................                ********&&&&&&&&%%%%%%%%$$$$$$$$                        ++++++++",
"........................        ................                ********&&&&&&&&%%%%%%%%$$$$$$$$                        ++++++++",
"........................        ................                ********&&&&&&&&%%%%%%%%$$$$$$$$                        ++++++++",
"........................        ................                ********&&&&&&&&%%%%%%%%$$$$$$$$                        ++++++++",
"........................        ................                ********&&&&&&&&%%%%%%%%$$$$$$$$                        ++++++++",
"........................        ................                ********&&&&&&&&%%%%%%%%$$$$$$$$                        ++++++++",
"                ++++++++++++++++........                ++++++++++++++++        @@@@@@@@@@@@@@@@@@@@@@@@........................",
"                ++++++++++++++++........                ++++++++++++++++        @@@@@@@@@@@@@@@@@@@@@@@@........................",
"                ++++++++++++++++........                ++++++++++++++++        @@@@@@@@@@@@@@@@@@@@@@@@........................",
"                ++++++++++++++++........                ++++++++++++++++        @@@@@@@@@@@@@@@@@@@@@@@@........................",
"                ++++++++++++++++........                ++++++++++++++++        @@@@@@@@@@@@@@@@@@@@@@@@........................",
"                ++++++++++++++++........                ++++++++++++++++        @@@@@@@@@@@@@@@@@@@@@@@@........................",
"                ++++++++++++++++........                ++++++++++++++++        @@@@@@@@@@@@@@@@@@@@@@@@........................",
"                ++++++++++++++++........                ++++++++++++++++        @@@@@@@@@@@@@@@@@@@@@@@@........................",
"++++++++++++++++&&&&&&&&********%%%%%%%%$$$$$$$$%%%%%%%%        ********&&&&&&&&########++++++++++++++++                        ",
"++++++++++++++++&&&&&&&&********%%%%%%%%$$$$$$$$%%%%%%%%        ********&&&&&&&&########++++++++++++++++                        ",
"++++++++++++++++&&&&&&&&********%%%%%%%%$$$$$$$$%%%%%%%%        ********&&&&&&&&########++++++++++++++++                        ",
"++++++++++++++++&&&&&&&&********%%%%%%%%$$$$$$$$%%%%%%%%        ********&&&&&&&&########++++++++++++++++                        ",
"++++++++++++++++&&&&&&&&********%%%%%%%%$$$$$$$$%%%%%%%%        ********&&&&&&&&########++++++++++++++++                        ",
"++++++++++++++++&&&&&&&&********%%%%%%%%$$$$$$$$%%%%%%%%        ********&&&&&&&&########++++++++++++++++                        ",
"++++++++++++++++&&&&&&&&********%%%%%%%%$$$$$$$$%%%%%%%%        ********&&&&&&&&########++++++++++++++++                        ",
"++++++++++++++++&&&&&&&&********%%%%%%%%$$$$$$$$%%%%%%%%        ********&&&&&&&&########++++++++++++++++                        ",
"@@@@@@@@@@@@@@@@@@@@@@@@&&&&&&&&********%%%%%%%%++++++++++++++++................++++++++%%%%%%%%        ........................",
"@@@@@@@@@@@@@@@@@@@@@@@@&&&&&&&&********%%%%%%%%++++++++++++++++................++++++++%%%%%%%%        ........................",
"@@@@@@@@@@@@@@@@@@@@@@@@&&&&&&&&********%%%%%%%%++++++++++++++++................++++++++%%%%%%%%        ........................",
"@@@@@@@@@@@@@@@@@@@@@@@@&&&&&&&&********%%%%%%%%++++++++++++++++................++++++++%%%%%%%%        ........................",
"@@@@@@@@@@@@@@@@@@@@@@@@&&&&&&&&********%%%%%%%%++++++++++++++++................++++++++%%%%%%%%        ........................",
"@@@@@@@@@@@@@@@@@@@@@@@@&&&&&&&&********%%%%%%%%++++++++++++++++................++++++++%%%%%%%%        ........................",
"@@@@@@@@@@@@@@@@@@@@@@@@&&&&&&&&********%%%%%%%%++++++++++++++++................++++++++%%%%%%%%        ........................",
"@@@@@@@@@@@@@@@@@@@@@@@@&&&&&&&&********%%%%%%%%++++++++++++++++................++++++++%%%%%%%%        ........................",
"................                ########################################........................########################........",
"................                ########################################........................########################........",
"................                ########################################........................########################........",
"................                ########################################........................########################........",
"................                ########################################........................########################........",
"................                ########################################........................########################........",
"................                ########################################........................########################........",
"................                ########################################........................########################........",
"++++++++        ++++++++                ........########        ++++++++++++++++@@@@@@@@@@@@@@@@@@@@@@@@########++++++++++++++++",
"++++++++        ++++++++                ........########        ++++++++++++++++@@@@@@@@@@@@@@@@@@@@@@@@########++++++++++++++++",
"++++++++        ++++++++                ........########        ++++++++++++++++@@@@@@@@@@@@@@@@@@@@@@@@########++++++++++++++++",
"++++++++        ++++++++                ........########        ++++++++++++++++@@@@@@@@@@@@@@@@@@@@@@@@########++++++++++++++++",
"++++++++        ++++++++                ........########        ++++++++++++++++@@@@@@@@@@@@@@@@@@@@@@@@########++++++++++++++++",
"++++++++        ++++++++                ........########        ++++++++++++++++@@@@@@@@@@@@@@@@@@@@@@@@########++++++++++++++++",
"++++++++        ++++++++                ........########        ++++++++++++++++@@@@@@@@@@@@@@@@@@@@@@@@########++++++++++++++++",
"++++++++        ++++++++                ........########        ++++++++++++++++@@@@@@@@@@@@@@@@@@@@@@@@########++++++++++++++++"};
