/* XPM */
static char * floor_xpm[] = {
"128 128 4 1",
" 	c #75483A",
".	c #2E1F2C",
"+	c #966C4A",
"@	c #4D2D33",
"                                ........                ++++++++........@@@@@@@@                @@@@@@@@................@@@@@@@@",
"                                ........                ++++++++........@@@@@@@@                @@@@@@@@................@@@@@@@@",
"                                ........                ++++++++........@@@@@@@@                @@@@@@@@................@@@@@@@@",
"                                ........                ++++++++........@@@@@@@@                @@@@@@@@................@@@@@@@@",
"                                ........                ++++++++........@@@@@@@@                @@@@@@@@................@@@@@@@@",
"                                ........                ++++++++........@@@@@@@@                @@@@@@@@................@@@@@@@@",
"                                ........                ++++++++........@@@@@@@@                @@@@@@@@................@@@@@@@@",
"                                ........                ++++++++........@@@@@@@@                @@@@@@@@................@@@@@@@@",
"@@@@@@@@                @@@@@@@@........@@@@@@@@                ................@@@@@@@@@@@@@@@@........++++++++++++++++........",
"@@@@@@@@                @@@@@@@@........@@@@@@@@                ................@@@@@@@@@@@@@@@@........++++++++++++++++........",
"@@@@@@@@                @@@@@@@@........@@@@@@@@                ................@@@@@@@@@@@@@@@@........++++++++++++++++........",
"@@@@@@@@                @@@@@@@@........@@@@@@@@                ................@@@@@@@@@@@@@@@@........++++++++++++++++........",
"@@@@@@@@                @@@@@@@@........@@@@@@@@                ................@@@@@@@@@@@@@@@@........++++++++++++++++........",
"@@@@@@@@                @@@@@@@@........@@@@@@@@                ................@@@@@@@@@@@@@@@@........++++++++++++++++........",
"@@@@@@@@                @@@@@@@@........@@@@@@@@                ................@@@@@@@@@@@@@@@@........++++++++++++++++........",
"@@@@@@@@                @@@@@@@@........@@@@@@@@                ................@@@@@@@@@@@@@@@@........++++++++++++++++........",
"........@@@@@@@@@@@@@@@@........................@@@@@@@@@@@@@@@@................................++++++++                ++++++++",
"........@@@@@@@@@@@@@@@@........................@@@@@@@@@@@@@@@@................................++++++++                ++++++++",
"........@@@@@@@@@@@@@@@@........................@@@@@@@@@@@@@@@@................................++++++++                ++++++++",
"........@@@@@@@@@@@@@@@@........................@@@@@@@@@@@@@@@@................................++++++++                ++++++++",
"........@@@@@@@@@@@@@@@@........................@@@@@@@@@@@@@@@@................................++++++++                ++++++++",
"........@@@@@@@@@@@@@@@@........................@@@@@@@@@@@@@@@@................................++++++++                ++++++++",
"........@@@@@@@@@@@@@@@@........................@@@@@@@@@@@@@@@@................................++++++++                ++++++++",
"........@@@@@@@@@@@@@@@@........................@@@@@@@@@@@@@@@@................................++++++++                ++++++++",
"................@@@@@@@@++++++++++++++++@@@@@@@@................++++++++++++++++@@@@@@@@........                                ",
"................@@@@@@@@++++++++++++++++@@@@@@@@................++++++++++++++++@@@@@@@@........                                ",
"................@@@@@@@@++++++++++++++++@@@@@@@@................++++++++++++++++@@@@@@@@........                                ",
"................@@@@@@@@++++++++++++++++@@@@@@@@................++++++++++++++++@@@@@@@@........                                ",
"................@@@@@@@@++++++++++++++++@@@@@@@@................++++++++++++++++@@@@@@@@........                                ",
"................@@@@@@@@++++++++++++++++@@@@@@@@................++++++++++++++++@@@@@@@@........                                ",
"................@@@@@@@@++++++++++++++++@@@@@@@@................++++++++++++++++@@@@@@@@........                                ",
"................@@@@@@@@++++++++++++++++@@@@@@@@................++++++++++++++++@@@@@@@@........                                ",
"........@@@@@@@@++++++++                ++++++++........++++++++                ++++++++@@@@@@@@                                ",
"........@@@@@@@@++++++++                ++++++++........++++++++                ++++++++@@@@@@@@                                ",
"........@@@@@@@@++++++++                ++++++++........++++++++                ++++++++@@@@@@@@                                ",
"........@@@@@@@@++++++++                ++++++++........++++++++                ++++++++@@@@@@@@                                ",
"........@@@@@@@@++++++++                ++++++++........++++++++                ++++++++@@@@@@@@                                ",
"........@@@@@@@@++++++++                ++++++++........++++++++                ++++++++@@@@@@@@                                ",
"........@@@@@@@@++++++++                ++++++++........++++++++                ++++++++@@@@@@@@                                ",
"........@@@@@@@@++++++++                ++++++++........++++++++                ++++++++@@@@@@@@                                ",
"........@@@@@@@@                @@@@@@@@@@@@@@@@........                                @@@@@@@@@@@@@@@@                @@@@@@@@",
"........@@@@@@@@                @@@@@@@@@@@@@@@@........                                @@@@@@@@@@@@@@@@                @@@@@@@@",
"........@@@@@@@@                @@@@@@@@@@@@@@@@........                                @@@@@@@@@@@@@@@@                @@@@@@@@",
"........@@@@@@@@                @@@@@@@@@@@@@@@@........                                @@@@@@@@@@@@@@@@                @@@@@@@@",
"........@@@@@@@@                @@@@@@@@@@@@@@@@........                                @@@@@@@@@@@@@@@@                @@@@@@@@",
"........@@@@@@@@                @@@@@@@@@@@@@@@@........                                @@@@@@@@@@@@@@@@                @@@@@@@@",
"........@@@@@@@@                @@@@@@@@@@@@@@@@........                                @@@@@@@@@@@@@@@@                @@@@@@@@",
"........@@@@@@@@                @@@@@@@@@@@@@@@@........                                @@@@@@@@@@@@@@@@                @@@@@@@@",
"................@@@@@@@@@@@@@@@@++++++++++++++++@@@@@@@@                @@@@@@@@@@@@@@@@................@@@@@@@@@@@@@@@@........",
"................@@@@@@@@@@@@@@@@++++++++++++++++@@@@@@@@                @@@@@@@@@@@@@@@@................@@@@@@@@@@@@@@@@........",
"................@@@@@@@@@@@@@@@@++++++++++++++++@@@@@@@@                @@@@@@@@@@@@@@@@................@@@@@@@@@@@@@@@@........",
"................@@@@@@@@@@@@@@@@++++++++++++++++@@@@@@@@                @@@@@@@@@@@@@@@@................@@@@@@@@@@@@@@@@........",
"................@@@@@@@@@@@@@@@@++++++++++++++++@@@@@@@@                @@@@@@@@@@@@@@@@................@@@@@@@@@@@@@@@@........",
"................@@@@@@@@@@@@@@@@++++++++++++++++@@@@@@@@                @@@@@@@@@@@@@@@@................@@@@@@@@@@@@@@@@........",
"................@@@@@@@@@@@@@@@@++++++++++++++++@@@@@@@@                @@@@@@@@@@@@@@@@................@@@@@@@@@@@@@@@@........",
"................@@@@@@@@@@@@@@@@++++++++++++++++@@@@@@@@                @@@@@@@@@@@@@@@@................@@@@@@@@@@@@@@@@........",
"++++++++@@@@@@@@........++++++++                ++++++++@@@@@@@@@@@@@@@@++++++++++++++++++++++++........................++++++++",
"++++++++@@@@@@@@........++++++++                ++++++++@@@@@@@@@@@@@@@@++++++++++++++++++++++++........................++++++++",
"++++++++@@@@@@@@........++++++++                ++++++++@@@@@@@@@@@@@@@@++++++++++++++++++++++++........................++++++++",
"++++++++@@@@@@@@........++++++++                ++++++++@@@@@@@@@@@@@@@@++++++++++++++++++++++++........................++++++++",
"++++++++@@@@@@@@........++++++++                ++++++++@@@@@@@@@@@@@@@@++++++++++++++++++++++++........................++++++++",
"++++++++@@@@@@@@........++++++++                ++++++++@@@@@@@@@@@@@@@@++++++++++++++++++++++++........................++++++++",
"++++++++@@@@@@@@........++++++++                ++++++++@@@@@@@@@@@@@@@@++++++++++++++++++++++++........................++++++++",
"++++++++@@@@@@@@........++++++++                ++++++++@@@@@@@@@@@@@@@@++++++++++++++++++++++++........................++++++++",
"        ++++++++........                                ........++++++++                        ++++++++........++++++++        ",
"        ++++++++........                                ........++++++++                        ++++++++........++++++++        ",
"        ++++++++........                                ........++++++++                        ++++++++........++++++++        ",
"        ++++++++........                                ........++++++++                        ++++++++........++++++++        ",
"        ++++++++........                                ........++++++++                        ++++++++........++++++++        ",
"        ++++++++........                                ........++++++++                        ++++++++........++++++++        ",
"        ++++++++........                                ........++++++++                        ++++++++........++++++++        ",
"        ++++++++........                                ........++++++++                        ++++++++........++++++++        ",
"                ........@@@@@@@@                        @@@@@@@@                                        @@@@@@@@                ",
"                ........@@@@@@@@                        @@@@@@@@                                        @@@@@@@@                ",
"                ........@@@@@@@@                        @@@@@@@@                                        @@@@@@@@                ",
"                ........@@@@@@@@                        @@@@@@@@                                        @@@@@@@@                ",
"                ........@@@@@@@@                        @@@@@@@@                                        @@@@@@@@                ",
"                ........@@@@@@@@                        @@@@@@@@                                        @@@@@@@@                ",
"                ........@@@@@@@@                        @@@@@@@@                                        @@@@@@@@                ",
"                ........@@@@@@@@                        @@@@@@@@                                        @@@@@@@@                ",
"@@@@@@@@++++++++++++++++........@@@@@@@@@@@@@@@@@@@@@@@@........@@@@@@@@                        @@@@@@@@................@@@@@@@@",
"@@@@@@@@++++++++++++++++........@@@@@@@@@@@@@@@@@@@@@@@@........@@@@@@@@                        @@@@@@@@................@@@@@@@@",
"@@@@@@@@++++++++++++++++........@@@@@@@@@@@@@@@@@@@@@@@@........@@@@@@@@                        @@@@@@@@................@@@@@@@@",
"@@@@@@@@++++++++++++++++........@@@@@@@@@@@@@@@@@@@@@@@@........@@@@@@@@                        @@@@@@@@................@@@@@@@@",
"@@@@@@@@++++++++++++++++........@@@@@@@@@@@@@@@@@@@@@@@@........@@@@@@@@                        @@@@@@@@................@@@@@@@@",
"@@@@@@@@++++++++++++++++........@@@@@@@@@@@@@@@@@@@@@@@@........@@@@@@@@                        @@@@@@@@................@@@@@@@@",
"@@@@@@@@++++++++++++++++........@@@@@@@@@@@@@@@@@@@@@@@@........@@@@@@@@                        @@@@@@@@................@@@@@@@@",
"@@@@@@@@++++++++++++++++........@@@@@@@@@@@@@@@@@@@@@@@@........@@@@@@@@                        @@@@@@@@................@@@@@@@@",
"++++++++                ++++++++................++++++++++++++++@@@@@@@@........@@@@@@@@@@@@@@@@........++++++++++++++++........",
"++++++++                ++++++++................++++++++++++++++@@@@@@@@........@@@@@@@@@@@@@@@@........++++++++++++++++........",
"++++++++                ++++++++................++++++++++++++++@@@@@@@@........@@@@@@@@@@@@@@@@........++++++++++++++++........",
"++++++++                ++++++++................++++++++++++++++@@@@@@@@........@@@@@@@@@@@@@@@@........++++++++++++++++........",
"++++++++                ++++++++................++++++++++++++++@@@@@@@@........@@@@@@@@@@@@@@@@........++++++++++++++++........",
"++++++++                ++++++++................++++++++++++++++@@@@@@@@........@@@@@@@@@@@@@@@@........++++++++++++++++........",
"++++++++                ++++++++................++++++++++++++++@@@@@@@@........@@@@@@@@@@@@@@@@........++++++++++++++++........",
"++++++++                ++++++++................++++++++++++++++@@@@@@@@........@@@@@@@@@@@@@@@@........++++++++++++++++........",
"@@@@@@@@                @@@@@@@@@@@@@@@@++++++++                ++++++++........................++++++++                ++++++++",
"@@@@@@@@                @@@@@@@@@@@@@@@@++++++++                ++++++++........................++++++++                ++++++++",
"@@@@@@@@                @@@@@@@@@@@@@@@@++++++++                ++++++++........................++++++++                ++++++++",
"@@@@@@@@                @@@@@@@@@@@@@@@@++++++++                ++++++++........................++++++++                ++++++++",
"@@@@@@@@                @@@@@@@@@@@@@@@@++++++++                ++++++++........................++++++++                ++++++++",
"@@@@@@@@                @@@@@@@@@@@@@@@@++++++++                ++++++++........................++++++++                ++++++++",
"@@@@@@@@                @@@@@@@@@@@@@@@@++++++++                ++++++++........................++++++++                ++++++++",
"@@@@@@@@                @@@@@@@@@@@@@@@@++++++++                ++++++++........................++++++++                ++++++++",
"@@@@@@@@@@@@@@@@@@@@@@@@........@@@@@@@@                                ........++++++++++++++++@@@@@@@@                        ",
"@@@@@@@@@@@@@@@@@@@@@@@@........@@@@@@@@                                ........++++++++++++++++@@@@@@@@                        ",
"@@@@@@@@@@@@@@@@@@@@@@@@........@@@@@@@@                                ........++++++++++++++++@@@@@@@@                        ",
"@@@@@@@@@@@@@@@@@@@@@@@@........@@@@@@@@                                ........++++++++++++++++@@@@@@@@                        ",
"@@@@@@@@@@@@@@@@@@@@@@@@........@@@@@@@@                                ........++++++++++++++++@@@@@@@@                        ",
"@@@@@@@@@@@@@@@@@@@@@@@@........@@@@@@@@                                ........++++++++++++++++@@@@@@@@                        ",
"@@@@@@@@@@@@@@@@@@@@@@@@........@@@@@@@@                                ........++++++++++++++++@@@@@@@@                        ",
"@@@@@@@@@@@@@@@@@@@@@@@@........@@@@@@@@                                ........++++++++++++++++@@@@@@@@                        ",
"@@@@@@@@++++++++++++++++@@@@@@@@........@@@@@@@@@@@@@@@@        @@@@@@@@++++++++                ++++++++@@@@@@@@                ",
"@@@@@@@@++++++++++++++++@@@@@@@@........@@@@@@@@@@@@@@@@        @@@@@@@@++++++++                ++++++++@@@@@@@@                ",
"@@@@@@@@++++++++++++++++@@@@@@@@........@@@@@@@@@@@@@@@@        @@@@@@@@++++++++                ++++++++@@@@@@@@                ",
"@@@@@@@@++++++++++++++++@@@@@@@@........@@@@@@@@@@@@@@@@        @@@@@@@@++++++++                ++++++++@@@@@@@@                ",
"@@@@@@@@++++++++++++++++@@@@@@@@........@@@@@@@@@@@@@@@@        @@@@@@@@++++++++                ++++++++@@@@@@@@                ",
"@@@@@@@@++++++++++++++++@@@@@@@@........@@@@@@@@@@@@@@@@        @@@@@@@@++++++++                ++++++++@@@@@@@@                ",
"@@@@@@@@++++++++++++++++@@@@@@@@........@@@@@@@@@@@@@@@@        @@@@@@@@++++++++                ++++++++@@@@@@@@                ",
"@@@@@@@@++++++++++++++++@@@@@@@@........@@@@@@@@@@@@@@@@        @@@@@@@@++++++++                ++++++++@@@@@@@@                ",
"++++++++                ++++++++........++++++++++++++++@@@@@@@@........                                ........@@@@@@@@@@@@@@@@",
"++++++++                ++++++++........++++++++++++++++@@@@@@@@........                                ........@@@@@@@@@@@@@@@@",
"++++++++                ++++++++........++++++++++++++++@@@@@@@@........                                ........@@@@@@@@@@@@@@@@",
"++++++++                ++++++++........++++++++++++++++@@@@@@@@........                                ........@@@@@@@@@@@@@@@@",
"++++++++                ++++++++........++++++++++++++++@@@@@@@@........                                ........@@@@@@@@@@@@@@@@",
"++++++++                ++++++++........++++++++++++++++@@@@@@@@........                                ........@@@@@@@@@@@@@@@@",
"++++++++                ++++++++........++++++++++++++++@@@@@@@@........                                ........@@@@@@@@@@@@@@@@",
"++++++++                ++++++++........++++++++++++++++@@@@@@@@........                                ........@@@@@@@@@@@@@@@@"};
