/* XPM */
static char * wall_xpm[] = {
"128 128 7 1",
" 	c #BE4A2F",
".	c #CB542C",
"+	c #B1ADA5",
"@	c #B8432F",
"#	c #A3432F",
"$	c #A9A49A",
"%	c #BAB7AF",
"        ................++++++++@@@@@@@@                @@@@@@@@@@@@@@@@        ........++++++++@@@@@@@@                        ",
"        ................++++++++@@@@@@@@                @@@@@@@@@@@@@@@@        ........++++++++@@@@@@@@                        ",
"        ................++++++++@@@@@@@@                @@@@@@@@@@@@@@@@        ........++++++++@@@@@@@@                        ",
"        ................++++++++@@@@@@@@                @@@@@@@@@@@@@@@@        ........++++++++@@@@@@@@                        ",
"        ................++++++++@@@@@@@@                @@@@@@@@@@@@@@@@        ........++++++++@@@@@@@@                        ",
"        ................++++++++@@@@@@@@                @@@@@@@@@@@@@@@@        ........++++++++@@@@@@@@                        ",
"        ................++++++++@@@@@@@@                @@@@@@@@@@@@@@@@        ........++++++++@@@@@@@@                        ",
"        ................++++++++@@@@@@@@                @@@@@@@@@@@@@@@@        ........++++++++@@@@@@@@                        ",
"########                ++++++++########                                ........        ++++++++        ................        ",
"########                ++++++++########                                ........        ++++++++        ................        ",
"########                ++++++++########                                ........        ++++++++        ................        ",
"########                ++++++++########                                ........        ++++++++        ................        ",
"########                ++++++++########                                ........        ++++++++        ................        ",
"########                ++++++++########                                ........        ++++++++        ................        ",
"########                ++++++++########                                ........        ++++++++        ................        ",
"########                ++++++++########                                ........        ++++++++        ................        ",
"@@@@@@@@        ########++++++++................        @@@@@@@@@@@@@@@@################++++++++################        ########",
"@@@@@@@@        ########++++++++................        @@@@@@@@@@@@@@@@################++++++++################        ########",
"@@@@@@@@        ########++++++++................        @@@@@@@@@@@@@@@@################++++++++################        ########",
"@@@@@@@@        ########++++++++................        @@@@@@@@@@@@@@@@################++++++++################        ########",
"@@@@@@@@        ########++++++++................        @@@@@@@@@@@@@@@@################++++++++################        ########",
"@@@@@@@@        ########++++++++................        @@@@@@@@@@@@@@@@################++++++++################        ########",
"@@@@@@@@        ########++++++++................        @@@@@@@@@@@@@@@@################++++++++################        ########",
"@@@@@@@@        ########++++++++................        @@@@@@@@@@@@@@@@################++++++++################        ########",
"$$$$$$$$++++++++$$$$$$$$$$$$$$$$$$$$$$$$++++++++%%%%%%%%%%%%%%%%%%%%%%%%++++++++$$$$$$$$$$$$$$$$$$$$$$$$$$$$$$$$++++++++++++++++",
"$$$$$$$$++++++++$$$$$$$$$$$$$$$$$$$$$$$$++++++++%%%%%%%%%%%%%%%%%%%%%%%%++++++++$$$$$$$$$$$$$$$$$$$$$$$$$$$$$$$$++++++++++++++++",
"$$$$$$$$++++++++$$$$$$$$$$$$$$$$$$$$$$$$++++++++%%%%%%%%%%%%%%%%%%%%%%%%++++++++$$$$$$$$$$$$$$$$$$$$$$$$$$$$$$$$++++++++++++++++",
"$$$$$$$$++++++++$$$$$$$$$$$$$$$$$$$$$$$$++++++++%%%%%%%%%%%%%%%%%%%%%%%%++++++++$$$$$$$$$$$$$$$$$$$$$$$$$$$$$$$$++++++++++++++++",
"$$$$$$$$++++++++$$$$$$$$$$$$$$$$$$$$$$$$++++++++%%%%%%%%%%%%%%%%%%%%%%%%++++++++$$$$$$$$$$$$$$$$$$$$$$$$$$$$$$$$++++++++++++++++",
"$$$$$$$$++++++++$$$$$$$$$$$$$$$$$$$$$$$$++++++++%%%%%%%%%%%%%%%%%%%%%%%%++++++++$$$$$$$$$$$$$$$$$$$$$$$$$$$$$$$$++++++++++++++++",
"$$$$$$$$++++++++$$$$$$$$$$$$$$$$$$$$$$$$++++++++%%%%%%%%%%%%%%%%%%%%%%%%++++++++$$$$$$$$$$$$$$$$$$$$$$$$$$$$$$$$++++++++++++++++",
"$$$$$$$$++++++++$$$$$$$$$$$$$$$$$$$$$$$$++++++++%%%%%%%%%%%%%%%%%%%%%%%%++++++++$$$$$$$$$$$$$$$$$$$$$$$$$$$$$$$$++++++++++++++++",
"$$$$$$$$@@@@@@@@                @@@@@@@@@@@@@@@@@@@@@@@@@@@@@@@@$$$$$$$$        @@@@@@@@        ........        ........        ",
"$$$$$$$$@@@@@@@@                @@@@@@@@@@@@@@@@@@@@@@@@@@@@@@@@$$$$$$$$        @@@@@@@@        ........        ........        ",
"$$$$$$$$@@@@@@@@                @@@@@@@@@@@@@@@@@@@@@@@@@@@@@@@@$$$$$$$$        @@@@@@@@        ........        ........        ",
"$$$$$$$$@@@@@@@@                @@@@@@@@@@@@@@@@@@@@@@@@@@@@@@@@$$$$$$$$        @@@@@@@@        ........        ........        ",
"$$$$$$$$@@@@@@@@                @@@@@@@@@@@@@@@@@@@@@@@@@@@@@@@@$$$$$$$$        @@@@@@@@        ........        ........        ",
"$$$$$$$$@@@@@@@@                @@@@@@@@@@@@@@@@@@@@@@@@@@@@@@@@$$$$$$$$        @@@@@@@@        ........        ........        ",
"$$$$$$$$@@@@@@@@                @@@@@@@@@@@@@@@@@@@@@@@@@@@@@@@@$$$$$$$$        @@@@@@@@        ........        ........        ",
"$$$$$$$$@@@@@@@@                @@@@@@@@@@@@@@@@@@@@@@@@@@@@@@@@$$$$$$$$        @@@@@@@@        ........        ........        ",
"++++++++########        @@@@@@@@@@@@@@@@@@@@@@@@                $$$$$$$$        ########@@@@@@@@@@@@@@@@@@@@@@@@                ",
"++++++++########        @@@@@@@@@@@@@@@@@@@@@@@@                $$$$$$$$        ########@@@@@@@@@@@@@@@@@@@@@@@@                ",
"++++++++########        @@@@@@@@@@@@@@@@@@@@@@@@                $$$$$$$$        ########@@@@@@@@@@@@@@@@@@@@@@@@                ",
"++++++++########        @@@@@@@@@@@@@@@@@@@@@@@@                $$$$$$$$        ########@@@@@@@@@@@@@@@@@@@@@@@@                ",
"++++++++########        @@@@@@@@@@@@@@@@@@@@@@@@                $$$$$$$$        ########@@@@@@@@@@@@@@@@@@@@@@@@                ",
"++++++++########        @@@@@@@@@@@@@@@@@@@@@@@@                $$$$$$$$        ########@@@@@@@@@@@@@@@@@@@@@@@@                ",
"++++++++########        @@@@@@@@@@@@@@@@@@@@@@@@                $$$$$$$$        ########@@@@@@@@@@@@@@@@@@@@@@@@                ",
"++++++++########        @@@@@@@@@@@@@@@@@@@@@@@@                $$$$$$$$        ########@@@@@@@@@@@@@@@@@@@@@@@@                ",
"%%%%%%%%########@@@@@@@@@@@@@@@@........                ########$$$$$$$$        ################                ................",
"%%%%%%%%########@@@@@@@@@@@@@@@@........                ########$$$$$$$$        ################                ................",
"%%%%%%%%########@@@@@@@@@@@@@@@@........                ########$$$$$$$$        ################                ................",
"%%%%%%%%########@@@@@@@@@@@@@@@@........                ########$$$$$$$$        ################                ................",
"%%%%%%%%########@@@@@@@@@@@@@@@@........                ########$$$$$$$$        ################                ................",
"%%%%%%%%########@@@@@@@@@@@@@@@@........                ########$$$$$$$$        ################                ................",
"%%%%%%%%########@@@@@@@@@@@@@@@@........                ########$$$$$$$$        ################                ................",
"%%%%%%%%########@@@@@@@@@@@@@@@@........                ########$$$$$$$$        ################                ................",
"%%%%%%%%++++++++++++++++++++++++++++++++++++++++++++++++++++++++++++++++%%%%%%%%%%%%%%%%$$$$$$$$$$$$$$$$++++++++++++++++++++++++",
"%%%%%%%%++++++++++++++++++++++++++++++++++++++++++++++++++++++++++++++++%%%%%%%%%%%%%%%%$$$$$$$$$$$$$$$$++++++++++++++++++++++++",
"%%%%%%%%++++++++++++++++++++++++++++++++++++++++++++++++++++++++++++++++%%%%%%%%%%%%%%%%$$$$$$$$$$$$$$$$++++++++++++++++++++++++",
"%%%%%%%%++++++++++++++++++++++++++++++++++++++++++++++++++++++++++++++++%%%%%%%%%%%%%%%%$$$$$$$$$$$$$$$$++++++++++++++++++++++++",
"%%%%%%%%++++++++++++++++++++++++++++++++++++++++++++++++++++++++++++++++%%%%%%%%%%%%%%%%$$$$$$$$$$$$$$$$++++++++++++++++++++++++",
"%%%%%%%%++++++++++++++++++++++++++++++++++++++++++++++++++++++++++++++++%%%%%%%%%%%%%%%%$$$$$$$$$$$$$$$$++++++++++++++++++++++++",
"%%%%%%%%++++++++++++++++++++++++++++++++++++++++++++++++++++++++++++++++%%%%%%%%%%%%%%%%$$$$$$$$$$$$$$$$++++++++++++++++++++++++",
"%%%%%%%%++++++++++++++++++++++++++++++++++++++++++++++++++++++++++++++++%%%%%%%%%%%%%%%%$$$$$$$$$$$$$$$$++++++++++++++++++++++++",
"........                $$$$$$$$        ........................................        ++++++++@@@@@@@@        @@@@@@@@@@@@@@@@",
"........                $$$$$$$$        ........................................        ++++++++@@@@@@@@        @@@@@@@@@@@@@@@@",
"........                $$$$$$$$        ........................................        ++++++++@@@@@@@@        @@@@@@@@@@@@@@@@",
"........                $$$$$$$$        ........................................        ++++++++@@@@@@@@        @@@@@@@@@@@@@@@@",
"........                $$$$$$$$        ........................................        ++++++++@@@@@@@@        @@@@@@@@@@@@@@@@",
"........                $$$$$$$$        ........................................        ++++++++@@@@@@@@        @@@@@@@@@@@@@@@@",
"........                $$$$$$$$        ........................................        ++++++++@@@@@@@@        @@@@@@@@@@@@@@@@",
"........                $$$$$$$$        ........................................        ++++++++@@@@@@@@        @@@@@@@@@@@@@@@@",
"@@@@@@@@@@@@@@@@        ++++++++########        @@@@@@@@@@@@@@@@@@@@@@@@        ########++++++++@@@@@@@@........        @@@@@@@@",
"@@@@@@@@@@@@@@@@        ++++++++########        @@@@@@@@@@@@@@@@@@@@@@@@        ########++++++++@@@@@@@@........        @@@@@@@@",
"@@@@@@@@@@@@@@@@        ++++++++########        @@@@@@@@@@@@@@@@@@@@@@@@        ########++++++++@@@@@@@@........        @@@@@@@@",
"@@@@@@@@@@@@@@@@        ++++++++########        @@@@@@@@@@@@@@@@@@@@@@@@        ########++++++++@@@@@@@@........        @@@@@@@@",
"@@@@@@@@@@@@@@@@        ++++++++########        @@@@@@@@@@@@@@@@@@@@@@@@        ########++++++++@@@@@@@@........        @@@@@@@@",
"@@@@@@@@@@@@@@@@        ++++++++########        @@@@@@@@@@@@@@@@@@@@@@@@        ########++++++++@@@@@@@@........        @@@@@@@@",
"@@@@@@@@@@@@@@@@        ++++++++########        @@@@@@@@@@@@@@@@@@@@@@@@        ########++++++++@@@@@@@@........        @@@@@@@@",
"@@@@@@@@@@@@@@@@        ++++++++########        @@@@@@@@@@@@@@@@@@@@@@@@        ########++++++++@@@@@@@@........        @@@@@@@@",
"        ################++++++++........@@@@@@@@                        ################$$$$$$$$@@@@@@@@@@@@@@@@................",
"        ################++++++++........@@@@@@@@                        ################$$$$$$$$@@@@@@@@@@@@@@@@................",
"        ################++++++++........@@@@@@@@                        ################$$$$$$$$@@@@@@@@@@@@@@@@................",
"        ################++++++++........@@@@@@@@                        ################$$$$$$$$@@@@@@@@@@@@@@@@................",
"        ################++++++++........@@@@@@@@                        ################$$$$$$$$@@@@@@@@@@@@@@@@................",
"        ################++++++++........@@@@@@@@                        ################$$$$$$$$@@@@@@@@@@@@@@@@................",
"        ################++++++++........@@@@@@@@                        ################$$$$$$$$@@@@@@@@@@@@@@@@................",
"        ################++++++++........@@@@@@@@                        ################$$$$$$$$@@@@@@@@@@@@@@@@................",
"++++++++$$$$$$$$$$$$$$$$$$$$$$$$++++++++$$$$$$$$$$$$$$$$++++++++++++++++++++++++$$$$$$$$$$$$$$$$$$$$$$$$++++++++++++++++++++++++",
"++++++++$$$$$$$$$$$$$$$$$$$$$$$$++++++++$$$$$$$$$$$$$$$$++++++++++++++++++++++++$$$$$$$$$$$$$$$$$$$$$$$$++++++++++++++++++++++++",
"++++++++$$$$$$$$$$$$$$$$$$$$$$$$++++++++$$$$$$$$$$$$$$$$++++++++++++++++++++++++$$$$$$$$$$$$$$$$$$$$$$$$++++++++++++++++++++++++",
"++++++++$$$$$$$$$$$$$$$$$$$$$$$$++++++++$$$$$$$$$$$$$$$$++++++++++++++++++++++++$$$$$$$$$$$$$$$$$$$$$$$$++++++++++++++++++++++++",
"++++++++$$$$$$$$$$$$$$$$$$$$$$$$++++++++$$$$$$$$$$$$$$$$++++++++++++++++++++++++$$$$$$$$$$$$$$$$$$$$$$$$++++++++++++++++++++++++",
"++++++++$$$$$$$$$$$$$$$$$$$$$$$$++++++++$$$$$$$$$$$$$$$$++++++++++++++++++++++++$$$$$$$$$$$$$$$$$$$$$$$$++++++++++++++++++++++++",
"++++++++$$$$$$$$$$$$$$$$$$$$$$$$++++++++$$$$$$$$$$$$$$$$++++++++++++++++++++++++$$$$$$$$$$$$$$$$$$$$$$$$++++++++++++++++++++++++",
"++++++++$$$$$$$$$$$$$$$$$$$$$$$$++++++++$$$$$$$$$$$$$$$$++++++++++++++++++++++++$$$$$$$$$$$$$$$$$$$$$$$$++++++++++++++++++++++++",
"%%%%%%%%................@@@@@@@@@@@@@@@@@@@@@@@@@@@@@@@@        ++++++++@@@@@@@@        ........                        ........",
"%%%%%%%%................@@@@@@@@@@@@@@@@@@@@@@@@@@@@@@@@        ++++++++@@@@@@@@        ........                        ........",
"%%%%%%%%................@@@@@@@@@@@@@@@@@@@@@@@@@@@@@@@@        ++++++++@@@@@@@@        ........                        ........",
"%%%%%%%%................@@@@@@@@@@@@@@@@@@@@@@@@@@@@@@@@        ++++++++@@@@@@@@        ........                        ........",
"%%%%%%%%................@@@@@@@@@@@@@@@@@@@@@@@@@@@@@@@@        ++++++++@@@@@@@@        ........                        ........",
"%%%%%%%%................@@@@@@@@@@@@@@@@@@@@@@@@@@@@@@@@        ++++++++@@@@@@@@        ........                        ........",
"%%%%%%%%................@@@@@@@@@@@@@@@@@@@@@@@@@@@@@@@@        ++++++++@@@@@@@@        ........                        ........",
"%%%%%%%%................@@@@@@@@@@@@@@@@@@@@@@@@@@@@@@@@        ++++++++@@@@@@@@        ........                        ........",
"++++++++@@@@@@@@        @@@@@@@@                        ........++++++++@@@@@@@@@@@@@@@@@@@@@@@@@@@@@@@@................        ",
"++++++++@@@@@@@@        @@@@@@@@                        ........++++++++@@@@@@@@@@@@@@@@@@@@@@@@@@@@@@@@................        ",
"++++++++@@@@@@@@        @@@@@@@@                        ........++++++++@@@@@@@@@@@@@@@@@@@@@@@@@@@@@@@@................        ",
"++++++++@@@@@@@@        @@@@@@@@                        ........++++++++@@@@@@@@@@@@@@@@@@@@@@@@@@@@@@@@................        ",
"++++++++@@@@@@@@        @@@@@@@@                        ........++++++++@@@@@@@@@@@@@@@@@@@@@@@@@@@@@@@@................        ",
"++++++++@@@@@@@@        @@@@@@@@                        ........++++++++@@@@@@@@@@@@@@@@@@@@@@@@@@@@@@@@................        ",
"++++++++@@@@@@@@        @@@@@@@@                        ........++++++++@@@@@@@@@@@@@@@@@@@@@@@@@@@@@@@@................        ",
"++++++++@@@@@@@@        @@@@@@@@                        ........++++++++@@@@@@@@@@@@@@@@@@@@@@@@@@@@@@@@................        ",
"++++++++########@@@@@@@@@@@@@@@@@@@@@@@@@@@@@@@@################++++++++########################################                ",
"++++++++########@@@@@@@@@@@@@@@@@@@@@@@@@@@@@@@@################++++++++########################################                ",
"++++++++########@@@@@@@@@@@@@@@@@@@@@@@@@@@@@@@@################++++++++########################################                ",
"++++++++########@@@@@@@@@@@@@@@@@@@@@@@@@@@@@@@@################++++++++########################################                ",
"++++++++########@@@@@@@@@@@@@@@@@@@@@@@@@@@@@@@@################++++++++########################################                ",
"++++++++########@@@@@@@@@@@@@@@@@@@@@@@@@@@@@@@@################++++++++########################################                ",
"++++++++########@@@@@@@@@@@@@@@@@@@@@@@@@@@@@@@@################++++++++########################################                ",
"++++++++########@@@@@@@@@@@@@@@@@@@@@@@@@@@@@@@@################++++++++########################################                ",
"$$$$$$$$++++++++++++++++++++++++++++++++%%%%%%%%%%%%%%%%%%%%%%%%++++++++++++++++++++++++++++++++$$$$$$$$$$$$$$$$++++++++++++++++",
"$$$$$$$$++++++++++++++++++++++++++++++++%%%%%%%%%%%%%%%%%%%%%%%%++++++++++++++++++++++++++++++++$$$$$$$$$$$$$$$$++++++++++++++++",
"$$$$$$$$++++++++++++++++++++++++++++++++%%%%%%%%%%%%%%%%%%%%%%%%++++++++++++++++++++++++++++++++$$$$$$$$$$$$$$$$++++++++++++++++",
"$$$$$$$$++++++++++++++++++++++++++++++++%%%%%%%%%%%%%%%%%%%%%%%%++++++++++++++++++++++++++++++++$$$$$$$$$$$$$$$$++++++++++++++++",
"$$$$$$$$++++++++++++++++++++++++++++++++%%%%%%%%%%%%%%%%%%%%%%%%++++++++++++++++++++++++++++++++$$$$$$$$$$$$$$$$++++++++++++++++",
"$$$$$$$$++++++++++++++++++++++++++++++++%%%%%%%%%%%%%%%%%%%%%%%%++++++++++++++++++++++++++++++++$$$$$$$$$$$$$$$$++++++++++++++++",
"$$$$$$$$++++++++++++++++++++++++++++++++%%%%%%%%%%%%%%%%%%%%%%%%++++++++++++++++++++++++++++++++$$$$$$$$$$$$$$$$++++++++++++++++",
"$$$$$$$$++++++++++++++++++++++++++++++++%%%%%%%%%%%%%%%%%%%%%%%%++++++++++++++++++++++++++++++++$$$$$$$$$$$$$$$$++++++++++++++++"};
